<?xml version="1.0" encoding="UTF-8"?><svg id="uuid-e285275e-8233-4a9d-ac6d-d8d4fc27512f" xmlns="http://www.w3.org/2000/svg" width="300.98" height="255.98" xmlns:xlink="http://www.w3.org/1999/xlink" viewBox="0 0 300.98 255.98"><defs><linearGradient id="uuid-78e40d9e-6689-479e-85ce-b02922107000" x1="127.99" y1="3.7" x2="127.99" y2="257.61" gradientUnits="userSpaceOnUse"><stop offset="0" stop-color="#ac99ea"/><stop offset=".04" stop-color="#9d87e6"/><stop offset=".13" stop-color="#866be0"/><stop offset=".22" stop-color="#7253dc"/><stop offset=".33" stop-color="#6341d8"/><stop offset=".46" stop-color="#5834d5"/><stop offset=".63" stop-color="#522dd4"/><stop offset="1" stop-color="#512bd4"/></linearGradient><clipPath id="uuid-ee733116-57e3-495f-be79-df50199fe4c7"><path d="M254.95,127.11c0,127.07.23,127.43-126.84,127.43S1.04,254.18,1.04,127.11,1.04,1.45,128.11,1.45,254.95.04,254.95,127.11Z" style="fill:none;"/></clipPath><linearGradient id="uuid-13d3805d-033d-493a-9b74-33126e4f5a5f" x1="33" y1="111.73" x2="274.6" y2="111.73" gradientUnits="userSpaceOnUse"><stop offset="0" stop-color="#3696a6"/><stop offset="1" stop-color="#287283"/></linearGradient><linearGradient id="uuid-57d5d251-8385-436f-abb0-e6710385a3b4" x1="63.39" y1="129.13" x2="281.62" y2="129.13" gradientUnits="userSpaceOnUse"><stop offset="0" stop-color="#349db0"/><stop offset="1" stop-color="#3a9cb1"/></linearGradient><filter id="uuid-a1346cbc-114e-4033-b38e-5b519ed3f295" x="57.98" y="68.98" width="243" height="134" filterUnits="userSpaceOnUse"><feOffset dx="7" dy="7"/><feGaussianBlur result="uuid-c6b98d00-e51e-4fd8-8d7c-d0a03431bcb9" stdDeviation="4"/><feFlood flood-color="#000" flood-opacity=".3"/><feComposite in2="uuid-c6b98d00-e51e-4fd8-8d7c-d0a03431bcb9" operator="in"/><feComposite in="SourceGraphic"/></filter><filter id="uuid-36a6f9b9-8c3d-48ac-8d54-828b76522896" x="17.98" y="62.98" width="274" height="88" filterUnits="userSpaceOnUse"><feOffset dx="7" dy="7"/><feGaussianBlur result="uuid-91cda73f-b6c8-4eac-9207-11be3151de57" stdDeviation="4"/><feFlood flood-color="#000" flood-opacity=".5"/><feComposite in2="uuid-91cda73f-b6c8-4eac-9207-11be3151de57" operator="in"/><feComposite in="SourceGraphic"/></filter><linearGradient id="uuid-353f134f-e4b4-425a-8611-ae3daa99be86" x1="143.97" y1="95.82" x2="272.02" y2="95.82" gradientUnits="userSpaceOnUse"><stop offset="0" stop-color="#074759"/><stop offset="1" stop-color="#3a9cb1"/></linearGradient><linearGradient id="uuid-e64cebeb-65b7-43bc-8a1b-8667be75fb82" y1="141.1" x2="218.22" y2="141.1" xlink:href="#uuid-57d5d251-8385-436f-abb0-e6710385a3b4"/><filter id="uuid-3804bc67-11b6-425f-bef7-80c1c41967cf" x="57.98" y="93.98" width="179" height="109" filterUnits="userSpaceOnUse"><feOffset dx="7" dy="7"/><feGaussianBlur result="uuid-79ce91c6-4267-45c6-9c4c-2db38803b984" stdDeviation="4"/><feFlood flood-color="#000" flood-opacity=".5"/><feComposite in2="uuid-79ce91c6-4267-45c6-9c4c-2db38803b984" operator="in"/><feComposite in="SourceGraphic"/></filter><filter id="uuid-c9cc52a7-a107-44dd-a710-2d3518e53372" x="158.98" y="70.98" width="81" height="117" filterUnits="userSpaceOnUse"><feOffset dx="7" dy="7"/><feGaussianBlur result="uuid-58a9e28a-09c6-4543-83fe-4625d61dfb85" stdDeviation="4"/><feFlood flood-color="#000" flood-opacity=".3"/><feComposite in2="uuid-58a9e28a-09c6-4543-83fe-4625d61dfb85" operator="in"/><feComposite in="SourceGraphic"/></filter><linearGradient id="uuid-07d6c5af-c41f-4450-8f16-a553667f3a99" x1="137.29" y1="156.76" x2="261.65" y2="156.76" gradientUnits="userSpaceOnUse"><stop offset="0" stop-color="#369daf"/><stop offset="1" stop-color="#328fa4"/></linearGradient><filter id="uuid-6240f074-9680-4da5-8e47-30c247f49349" x="133.98" y="119.98" width="147" height="87" filterUnits="userSpaceOnUse"><feOffset dx="7" dy="7"/><feGaussianBlur result="uuid-178c5555-d2f8-4525-b6cb-4a2cbb77e3b0" stdDeviation="4"/><feFlood flood-color="#000" flood-opacity=".5"/><feComposite in2="uuid-178c5555-d2f8-4525-b6cb-4a2cbb77e3b0" operator="in"/><feComposite in="SourceGraphic"/></filter><filter id="uuid-17e1ecc6-150b-47d9-89e9-76fe9aa1e2d4" x="55.98" y="97.98" width="113" height="89" filterUnits="userSpaceOnUse"><feOffset dx="7" dy="7"/><feGaussianBlur result="uuid-e593b48c-ed1f-45fb-a72b-9c296eab773f" stdDeviation="4"/><feFlood flood-color="#000" flood-opacity=".1"/><feComposite in2="uuid-e593b48c-ed1f-45fb-a72b-9c296eab773f" operator="in"/><feComposite in="SourceGraphic"/></filter><filter id="uuid-42d4ee67-ffd0-47f2-abd7-bfd9b088294f" x="20.98" y="144.98" width="42" height="43" filterUnits="userSpaceOnUse"><feOffset dx="7" dy="7"/><feGaussianBlur result="uuid-bca79568-5bb5-4731-abc5-2c9fdc1c35e4" stdDeviation="4"/><feFlood flood-color="#000" flood-opacity=".1"/><feComposite in2="uuid-bca79568-5bb5-4731-abc5-2c9fdc1c35e4" operator="in"/><feComposite in="SourceGraphic"/></filter></defs><path d="M254.95,127.11c0,127.07.23,127.43-126.84,127.43S1.04,254.18,1.04,127.11,1.04,1.45,128.11,1.45,254.95.04,254.95,127.11Z" style="fill:url(#uuid-78e40d9e-6689-479e-85ce-b02922107000);"/><g style="clip-path:url(#uuid-ee733116-57e3-495f-be79-df50199fe4c7);"><path d="M46.79,72.52c.17,5.6,1.02,11.15,2.75,16.38.83,2.63,1.95,5.15,3.16,7.6,1.25,2.44,2.72,4.76,4.32,6.99,6.47,8.85,15.63,15.77,25.67,20.11,2.5,1.06,5.08,1.99,7.57,2.59,2.4.59,4.96.87,7.4.81,4.93-.08,9.73-1.57,14.43-4.01,4.7-2.44,9.28-5.74,13.97-9.24,4.7-3.5,9.54-7.24,14.91-10.64,5.35-3.39,11.31-6.45,17.88-8.34,3.27-.95,6.67-1.6,10.1-1.93,1.71-.14,3.44-.25,5.16-.23,1.7,0,3.31.07,4.99.18,6.63.46,13.52,1.98,19.87,4.86,6.38,2.83,11.97,6.91,16.77,10.95,4.82,4.05,9.04,8.02,13.28,11.19,4.24,3.19,8.5,5.61,13.11,7.22,4.6,1.62,9.52,2.43,14.73,2.67,3.3.18,6.22.45,9.18.67l4.3.32,1.98.1.79.02h.26s-.12-.02-.18,0l1.42,20.14c-.43.02-.88.03-1.29.03l-.85-.03-1.43-.1-2.46-.24-4.56-.54c-2.94-.37-5.93-.76-8.54-1.02-6.62-.6-13.48-2.01-19.98-4.64-6.51-2.59-12.49-6.45-17.52-10.64-5.07-4.19-9.31-8.59-13.41-12.35-4.1-3.77-8.1-6.9-12.5-9.1-4.38-2.22-9.2-3.57-14.37-4.18-1.28-.15-2.63-.26-3.9-.32-1.25-.08-2.49-.05-3.74,0-2.49.12-4.96.47-7.42,1.07-4.92,1.18-9.76,3.32-14.55,6.06-4.8,2.73-9.53,6.04-14.5,9.41-4.97,3.36-10.19,6.84-16.17,9.62-2.99,1.37-6.17,2.56-9.51,3.35-3.34.79-6.84,1.19-10.31,1.09-1.73-.04-3.46-.2-5.15-.47-.85-.12-1.68-.3-2.52-.47-.86-.2-1.7-.41-2.5-.65-3.24-.94-6.21-2.18-9.11-3.57-5.77-2.79-11.1-6.29-15.95-10.4-4.85-4.1-9.15-8.89-12.7-14.21-1.75-2.67-3.33-5.46-4.66-8.36-1.29-2.92-2.45-5.9-3.27-8.98-1.72-6.13-2.39-12.48-2.3-18.73h7.37Z" style="fill:url(#uuid-13d3805d-033d-493a-9b74-33126e4f5a5f);"/><path d="M64.36,118.67c10.99,1.59,31.39-21.45,49.6-10.47,33.39,20.12,35.51,68.8,61.21,68.7,44.6-.18,49.07-111,104.43-93.7" style="fill:none; filter:url(#uuid-a1346cbc-114e-4033-b38e-5b519ed3f295); stroke:url(#uuid-57d5d251-8385-436f-abb0-e6710385a3b4); stroke-miterlimit:10; stroke-width:13.51px;"/><path d="M31.18,72.48c-1.03,27.41,25.82,49.45,52.16,48.1,6.81-.56,13.04-3.17,19.49-6.33,27.14-13.79,50.93-35.88,81.28-44.12,33.52-9.14,65.59,13.47,87.91,36.05,0,0-13.39,12.86-13.39,12.86-14.98-16-33.51-32.27-55.44-35.12-22-2.41-44.1,12.1-62.95,22.81-17.64,9.88-40.14,26.1-61.53,24.28-29.64-2.14-57.07-28.13-54.83-58.83,0,0,7.3.31,7.3.31h0Z" style="fill:#339db2; filter:url(#uuid-36a6f9b9-8c3d-48ac-8d54-828b76522896);"/><path d="M228.51,74.52c.41.11,1.04.46,1.55.69,15.87,7.27,30.25,19.12,41.95,30.96,0,0-13.39,12.86-13.39,12.86-14.98-16-39.14-33.22-52.41-34.48-24.76-2.35-47.91,12.56-61.26,19.5-.33.17-.99.52-.99.52,0,0,42.38-41.19,84.55-30.05Z" style="fill:url(#uuid-353f134f-e4b4-425a-8611-ae3daa99be86);"/><path d="M64.36,118.67c10.99,1.59,31.39-21.45,49.6-10.47,33.39,20.12,35.51,68.8,61.21,68.7,5.01-.02,14.61,3.45,37.41-31.17" style="fill:none; filter:url(#uuid-3804bc67-11b6-425f-bef7-80c1c41967cf); stroke:url(#uuid-e64cebeb-65b7-43bc-8a1b-8667be75fb82); stroke-miterlimit:10; stroke-width:13.51px;"/><path d="M190.09,168.75c-5.14,0-9.64-1.29-13.49-3.85-3.85-2.57-6.84-6.31-8.96-11.22-2.12-4.91-3.17-10.81-3.17-17.68s1.26-12.54,3.8-17.46c2.53-4.91,5.82-8.69,9.86-11.34,4.04-2.64,8.37-3.97,12.98-3.97,3.63,0,6.71.62,9.24,1.87,2.53,1.25,5.04,2.97,7.54,5.16l-.45-10.32v-23.12h13.04v90.35h-10.66l-1.13-7.03h-.34c-2.34,2.42-5.06,4.46-8.16,6.12-3.1,1.66-6.46,2.49-10.09,2.49ZM193.26,157.76c2.64,0,5.1-.6,7.37-1.81,2.27-1.21,4.53-3.13,6.8-5.78v-30.38c-2.27-2.04-4.53-3.5-6.8-4.36-2.27-.87-4.57-1.3-6.91-1.3-2.87,0-5.5.89-7.88,2.66-2.38,1.78-4.29,4.27-5.72,7.48-1.44,3.21-2.15,7.08-2.15,11.62s.6,8.67,1.81,11.96c1.21,3.29,2.96,5.76,5.27,7.42,2.3,1.66,5.04,2.49,8.22,2.49Z" style="fill:#fff; filter:url(#uuid-c9cc52a7-a107-44dd-a710-2d3518e53372);"/><path d="M259.17,179.76c-5.02,1.93-12.47,2.51-21.13,2.35-40.7-.78-25.16-50.02-49.72-50.72-18.52-.52-30.76,21.11-44.12,10.6-2.48-1.95-3.93-1.82-3.93-1.82" style="fill:none; filter:url(#uuid-6240f074-9680-4da5-8e47-30c247f49349); stroke:url(#uuid-07d6c5af-c41f-4450-8f16-a553667f3a99); stroke-miterlimit:10; stroke-width:13.82px;"/><path d="M61.77,167.17v-62.46h10.66l1.13,8.84h.23c2.72-2.87,5.65-5.31,8.79-7.31,3.13-2,6.67-3,10.6-3,4.61,0,8.27,1,11,3,2.72,2,4.76,4.82,6.12,8.44,3.1-3.32,6.29-6.06,9.58-8.22,3.29-2.15,6.86-3.23,10.71-3.23,6.5,0,11.32,2.14,14.45,6.41,3.13,4.27,4.7,10.37,4.7,18.31v39.22h-13.15v-37.63c0-5.36-.83-9.2-2.49-11.5-1.66-2.3-4.27-3.46-7.82-3.46-2.12,0-4.33.68-6.63,2.04-2.31,1.36-4.78,3.48-7.42,6.35v44.21h-13.04v-37.63c0-5.36-.83-9.2-2.49-11.5-1.66-2.3-4.31-3.46-7.94-3.46-2.04,0-4.23.68-6.57,2.04-2.34,1.36-4.8,3.48-7.37,6.35v44.21h-13.04Z" style="fill:#fff; filter:url(#uuid-17e1ecc6-150b-47d9-89e9-76fe9aa1e2d4);"/><path d="M35.02,168.75c-2.42,0-4.48-.89-6.18-2.66-1.7-1.77-2.55-3.99-2.55-6.63s.85-4.93,2.55-6.63c1.7-1.7,3.76-2.55,6.18-2.55s4.59.85,6.29,2.55c1.7,1.7,2.55,3.91,2.55,6.63s-.85,4.86-2.55,6.63c-1.7,1.78-3.8,2.66-6.29,2.66Z" style="fill:#fff; filter:url(#uuid-42d4ee67-ffd0-47f2-abd7-bfd9b088294f);"/><text transform="translate(61.09 37.34)" style="fill:#fff; font-family:NotoSansSC-Medium, &apos;Noto Sans SC&apos;; font-size:24px; font-variation-settings:&apos;wght&apos; 500; font-weight:500;"><tspan x="0" y="0">H1</tspan></text><text transform="translate(16.8 72.52)" style="fill:#fff; font-family:NotoSansSC-Black, &apos;Noto Sans SC&apos;; font-size:72px; font-variation-settings:&apos;wght&apos; 900; font-weight:800;"><tspan x="0" y="0">#</tspan></text><text transform="translate(61.73 54.26)" style="fill:#fff; font-family:NotoSansSC-Medium, &apos;Noto Sans SC&apos;; font-size:18px; font-variation-settings:&apos;wght&apos; 500; font-weight:500;"><tspan x="0" y="0">H2</tspan></text><text transform="translate(62.15 69.26)" style="fill:#fff; font-family:NotoSansSC-Medium, &apos;Noto Sans SC&apos;; font-size:14px; font-variation-settings:&apos;wght&apos; 500; font-weight:500;"><tspan x="0" y="0">H3</tspan></text></g></svg>